<svg width="411" height="158" viewBox="0 0 411 158" fill="none" xmlns="http://www.w3.org/2000/svg">
<g clip-path="url(#clip0_2302_200)">
<path d="M369.992 158C363.248 143.864 350.608 135.852 337.917 128.149C314.088 113.679 287.826 106.06 260.247 103.245C236.685 100.838 213.04 98.2987 189.404 97.9144C166.463 97.5384 143.472 99.8526 120.498 100.939C118.879 101.014 117.235 100.755 115.541 99.8359C125.783 95.6754 136.67 94.7146 147.163 92.3587C147.096 86.3184 142.969 82.2915 136.15 81.6399C129.624 81.0216 123.09 80.5705 116.556 80.0692C112.253 79.735 107.925 79.593 103.639 79.1001C100.301 78.7158 98.514 79.9021 97.4404 83.1103C95.9977 87.4212 94.1524 91.6151 92.2651 95.7589C91.8877 96.5944 90.5289 96.9871 89.6146 97.5802C89.5223 96.5025 89.0526 95.2744 89.4133 94.3637C90.8476 90.763 92.3071 87.1371 94.2027 83.7703C95.9054 80.7459 95.8467 78.7826 92.4161 77.2538C91.1244 76.6773 90.143 75.4241 89.1113 73.252C91.1496 72.8593 93.171 72.3413 95.226 72.1157C97.6668 71.8484 99.0928 71.013 99.856 68.3646C105.224 49.8928 110.794 31.4879 116.33 13.0663C116.707 11.8047 117.294 10.61 117.789 9.39028C118.183 9.30674 118.578 9.22319 118.972 9.13965C119.802 10.6936 120.825 12.1807 121.446 13.8098C129.096 34.0193 136.754 54.2204 144.227 74.4884C145.469 77.8469 147.129 79.4426 150.887 79.1586C154.905 78.8578 159.308 78.131 162.94 79.3591C168.527 81.2388 173.534 80.1778 178.751 78.8745C179.464 78.6991 180.446 78.2897 180.697 77.7216C185.201 67.4874 190.184 57.4119 193.849 46.8852C196.131 40.3102 196.374 33.0335 197.573 26.0825C197.75 25.0716 198.135 24.0942 198.672 22.2562C201.49 26.4919 201.088 30.335 200.786 34.1028C200.643 35.8824 200.291 37.712 199.628 39.3578C194.998 50.8035 195.535 62.6919 196.466 74.6054C196.592 76.2512 197.28 79.0333 198.11 79.192C199.88 79.5262 201.927 78.5404 203.831 77.9722C204.46 77.7801 204.971 77.2036 205.525 76.811C210.667 79.9021 215.985 77.9472 221.135 77.1451C222.166 76.9864 223.332 74.1793 223.492 72.5001C225.027 56.5096 226.335 40.494 227.786 24.4952C227.945 22.7742 228.591 21.0866 229.246 18.3964C233.842 23.4759 235.419 28.7393 236.107 34.3284C237.247 43.6353 234.287 52.4326 232.433 61.3468C231.477 65.9251 230.244 70.4365 229.162 74.8393C231.099 75.5077 232.97 76.151 235.218 76.9279C236.811 76.0424 238.841 74.8978 240.821 73.795C243.589 77.2705 249.536 78.4735 254.719 76.8527C263.87 73.9955 274.128 60.9542 274.657 51.4551C274.699 50.6865 274.539 49.9095 274.456 48.9488C270.631 50.8202 267.183 52.8754 263.476 54.2037C260.112 55.4151 256.497 56.2005 252.924 56.5346C247.33 57.0526 243.303 54.2121 240.779 49.3832C238.464 44.9637 239.37 40.8115 243.312 36.4839C251.96 26.9932 265.59 28.1377 272.459 38.9317C273.332 40.3019 274.154 41.6971 275.11 43.2594C278.146 40.7196 280.889 38.1631 283.909 35.9743C288.673 32.5239 293.043 34.4203 293.764 40.2267C294.46 45.8242 293.328 50.8703 289.05 55.0643C285.594 58.4478 285.62 68.1307 288.773 71.7565C290.786 74.0707 294.746 73.5527 296.121 70.6704C296.952 68.9327 297.128 66.8107 298.201 65.2818C298.906 64.2792 300.684 64.0286 301.984 63.4438C301.993 64.6301 302.278 65.9 301.934 66.9777C301.573 68.1139 300.625 69.058 299.929 70.094C300.181 70.4281 300.441 70.754 300.692 71.0881C302.462 69.7264 304.979 68.7238 305.876 66.9276C309.382 59.9182 312.419 52.6749 315.53 45.4733C316.378 43.5267 316.906 41.4381 317.577 39.4163C318.063 39.4998 318.55 39.575 319.028 39.6586C318.927 41.3796 319.196 43.2259 318.651 44.8049C316.428 51.2546 316 57.7878 317.007 64.4798C317.72 69.2167 319.917 70.3195 323.734 67.5793C331.291 62.1572 337.112 55.6073 338.479 45.8827C339.192 40.8282 340.895 35.9993 345.29 32.198C347.446 35.7654 347.119 39.1406 345.064 42.0313C340.148 48.9321 339.528 56.6683 339.947 64.6636C340.006 65.7914 340.786 66.8858 341.23 67.997C342.413 67.4456 343.906 67.1699 344.728 66.2843C346.85 63.9785 348.67 61.3969 351.656 59.041C351.791 60.7871 351.841 62.5499 352.093 64.2876C352.294 65.6912 352.747 67.0613 353.082 68.4481C354.341 67.8717 355.984 67.6127 356.781 66.6519C359.616 63.2767 362.158 59.6592 365.463 55.2731C365.765 57.579 366.142 59.3919 366.226 61.2132C366.478 66.7188 366.595 72.2327 366.805 77.7467C366.931 80.9966 368.742 81.9991 371.93 82.1328C381.81 82.5505 391.691 83.2105 401.555 83.9624C404.726 84.2047 407.854 85.0485 411.008 85.6166C411.008 86.168 411.008 86.7277 411.008 87.2791C398.787 86.4688 386.566 85.5581 374.337 84.873C367.14 84.472 366.855 84.7227 367.383 91.824C368.575 107.973 370.076 124.089 371.25 140.238C371.678 146.128 371.552 152.06 371.678 157.966C371.108 158 370.546 158 369.992 158ZM153.68 94.0045C153.697 94.4222 153.714 94.8399 153.731 95.2577C154.905 95.3496 156.071 95.4749 157.245 95.5167C183.004 96.3855 208.805 96.6362 234.505 98.3071C256.573 99.7357 278.675 102.125 299.921 108.875C324.866 116.804 348.033 127.89 366.075 147.565C366.838 148.401 367.845 149.01 369.128 150.046C369.287 148.785 369.455 148.25 369.413 147.741C367.618 127.322 365.773 106.912 364.054 86.4938C363.81 83.6032 362.091 83.6867 360.036 83.6951C347.354 83.7786 334.663 83.7285 321.981 83.9206C292.43 84.3718 262.872 84.5305 233.347 85.6166C216.521 86.2348 199.746 88.2817 182.979 90.0027C173.173 91.0052 163.444 92.6511 153.68 94.0045ZM119.685 17.1683C119.358 17.1934 119.03 17.2101 118.703 17.2351C112.983 35.3059 107.254 53.3766 101.492 71.5894C102.565 71.9152 103.085 72.2244 103.589 72.1993C114.962 71.5644 125.64 74.4801 136.183 78.3148C138.255 79.0667 140.654 78.9163 143.548 79.2505C135.387 58.0217 127.536 37.595 119.685 17.1683ZM363.492 80.913C363.114 76.2094 362.762 71.7732 362.384 67.0529C353.82 73.0264 353.82 73.0264 349.761 69.86C345.559 70.3279 342.589 70.6621 339.62 70.9879C338.681 71.0965 337.506 70.8709 336.827 71.3471C333.036 74.0122 329.655 73.9621 327.969 71.414C321.368 71.8066 315.925 73.0431 310.825 72.1993C305.398 71.3054 301.204 74.1125 296.683 75.3072C290.619 76.9112 287.054 76.2178 285.427 69.9937C284.739 67.362 284.236 64.6886 283.649 62.0402C283.372 62.082 283.103 62.1154 282.827 62.1572C282.088 68.2894 281.359 74.4216 280.579 80.913C308.325 80.913 335.669 80.913 363.492 80.913ZM256.002 32.6659C253.805 33.7603 249.552 35.3978 245.87 37.8624C242.658 40.0178 240.628 43.3346 242.288 47.5703C243.631 50.9789 248.655 54.6382 252.337 53.6941C258.586 52.0984 264.642 49.6589 270.656 47.2695C273.457 46.1584 273.357 43.8024 272.057 41.3629C269.129 35.8489 264.508 33.0669 256.002 32.6659ZM226.654 83.1186C243.84 82.609 259.97 82.1829 276.091 81.4978C277.073 81.4561 278.649 79.4761 278.784 78.273C279.832 68.5066 280.662 58.7152 281.401 48.9153C281.543 47.0607 280.956 45.1475 280.713 43.2594C280.067 43.2009 279.429 43.1508 278.784 43.0923C278.062 45.4148 277.341 47.729 276.628 50.0516C275.043 55.2648 274.221 60.8957 271.662 65.5909C269.339 69.835 265.078 73.0097 261.757 76.7358C259.081 79.735 255.927 80.9548 251.809 80.7877C246.818 80.5872 241.794 81.2639 236.795 81.1637C234.614 81.1219 232.45 80.111 229.564 79.3507C229.237 79.7768 228.247 81.055 226.654 83.1186ZM147.708 81.7735C149.73 91.5733 150.157 91.7738 159.61 90.6794C177.728 88.5908 195.871 86.6693 213.997 84.6475C217.41 84.2632 220.807 83.7535 224.221 83.3108C224.23 82.8513 224.238 82.3918 224.246 81.9323C221.302 81.6816 218.358 81.1553 215.423 81.2472C209.375 81.4477 203.344 82.0743 197.297 82.3416C192.079 82.5672 186.845 82.5087 181.62 82.6257C179.498 82.6758 177.376 82.8011 175.262 83.01C170.028 83.5196 164.802 84.1379 159.56 84.5974C158.822 84.6642 157.74 84.3467 157.321 83.8204C154.62 80.4201 151.088 81.8237 147.708 81.7735ZM225.798 71.0965C226.184 71.1968 226.57 71.297 226.956 71.3973C227.459 70.0856 228.096 68.8157 228.449 67.4707C229.321 64.1289 230.193 60.7787 230.822 57.3868C232.089 50.6113 233.532 43.8358 234.253 36.9935C234.689 32.9082 233.725 28.756 229.908 25.6398C228.541 40.7948 227.165 55.9415 225.798 71.0965ZM283.615 55.2815C284.118 55.3065 284.63 55.3316 285.133 55.3567C289.403 51.8979 292.02 47.4533 291.877 41.931C291.835 40.4188 289.814 38.9568 288.706 37.4697C287.012 38.7897 284.076 39.9343 283.85 41.4632C283.196 45.9913 283.615 50.6698 283.615 55.2815ZM122.813 77.5545C122.83 77.1869 122.847 76.8193 122.864 76.4601C115.34 74.8894 107.808 73.4942 100.141 75.2487C100.124 75.6413 100.108 76.0424 100.091 76.435C107.665 76.8026 115.239 77.1786 122.813 77.5545ZM192.532 73.7532C192.532 69.5426 192.532 65.5909 192.532 61.0461C187.147 69.86 186.577 72.9345 192.532 73.7532ZM186.594 73.5861C185.612 75.7082 184.874 77.2955 184.145 78.8745C188.708 81.1804 189.387 80.9548 191.719 76.3515C190.184 75.5244 188.649 74.6973 186.594 73.5861Z" fill="white"/>
<path d="M42.3162 102.274C32.5697 73.9109 20.7261 46.6419 0 24.018C0.662633 23.6253 1.31688 23.2243 1.97951 22.8316C11.6003 31.4117 18.4195 42.1806 24.2406 53.5343C30.1037 64.9633 35.2957 76.7264 41.3433 88.406C40.8651 84.212 40.4458 80.0097 39.9089 75.8241C38.5334 65.122 36.6545 54.4533 35.8157 43.7095C34.7253 29.7993 37.7281 16.9584 48.6322 7.01657C57.9091 -1.44652 70.9101 -2.35716 79.9605 4.83605C87.9624 11.1938 86.9559 21.2192 77.8216 25.764C72.1515 28.5879 66.2381 29.9246 60.1067 27.4934C58.6556 26.917 57.6071 25.3296 56.718 23.5501C64.0741 27.0757 70.8765 26.2987 77.5784 22.6228C83.995 19.1055 84.8086 13.1738 79.5663 8.0024C73.4264 1.9454 64.0489 0.683873 55.9631 4.93631C43.1969 11.645 38.2146 23.2493 37.9798 36.5664C37.7868 47.2852 39.5818 58.0458 40.6722 68.7729C41.7039 78.9654 42.9789 89.1328 44.0944 99.3169C44.1867 100.177 43.8512 101.08 43.717 101.965C43.2389 102.074 42.7776 102.174 42.3162 102.274Z" fill="white"/>
<ellipse cx="65.4245" cy="74.355" rx="2.51633" ry="2.50635" fill="white"/>
</g>
<defs>
<clipPath id="clip0_2302_200">
<rect width="411" height="158" fill="white"/>
</clipPath>
</defs>
</svg>
