<svg width="288" height="111" viewBox="0 0 288 111" fill="none" xmlns="http://www.w3.org/2000/svg">
<g clip-path="url(#clip0_2302_233)">
<path d="M259.265 111C254.539 101.069 245.682 95.4405 236.789 90.0291C220.091 79.8634 201.688 74.5107 182.363 72.5327C165.853 70.8423 149.284 69.0581 132.721 68.7881C116.646 68.524 100.536 70.1498 84.4372 70.9128C83.3028 70.9656 82.1508 70.7836 80.9635 70.138C88.14 67.2151 95.7691 66.5402 103.122 64.885C103.075 60.6415 100.183 57.8125 95.4047 57.3547C90.8319 56.9204 86.2533 56.6034 81.6747 56.2513C78.6595 56.0165 75.6267 55.9167 72.6233 55.5704C70.284 55.3005 69.0321 56.1339 68.2798 58.3877C67.2688 61.4163 65.9758 64.3626 64.6533 67.2738C64.3888 67.8607 63.4367 68.1366 62.796 68.5533C62.7314 67.7962 62.4022 66.9334 62.655 66.2936C63.66 63.764 64.6827 61.2167 66.011 58.8514C67.2042 56.7267 67.163 55.3474 64.7591 54.2733C63.854 53.8684 63.1663 52.988 62.4434 51.4619C63.8716 51.1861 65.2881 50.8222 66.7281 50.6637C68.4385 50.4759 69.4376 49.889 69.9725 48.0284C73.7341 35.0514 77.6368 22.1214 81.516 9.17959C81.7805 8.29332 82.1919 7.45402 82.5387 6.5971C82.8149 6.53841 83.0912 6.47971 83.3674 6.42102C83.9493 7.51271 84.6664 8.55744 85.1013 9.70195C90.4616 23.8998 95.8278 38.0917 101.065 52.3306C101.935 54.6901 103.098 55.8111 105.732 55.6115C108.547 55.4002 111.633 54.8896 114.178 55.7524C118.092 57.073 121.601 56.3276 125.257 55.412C125.756 55.2887 126.444 55.0011 126.62 54.602C129.777 47.4121 133.268 40.3338 135.836 32.9385C137.435 28.3193 137.605 23.2072 138.446 18.3239C138.569 17.6138 138.84 16.927 139.216 15.6358C141.191 18.6115 140.909 21.3114 140.697 23.9585C140.597 25.2086 140.35 26.494 139.886 27.6502C136.642 35.6912 137.018 44.0432 137.67 52.4128C137.758 53.569 138.24 55.5235 138.822 55.635C140.062 55.8698 141.496 55.1772 142.831 54.7781C143.271 54.6431 143.63 54.2381 144.018 53.9623C147.621 56.1339 151.347 54.7605 154.956 54.197C155.679 54.0855 156.496 52.1134 156.608 50.9337C157.683 39.6999 158.6 28.4485 159.617 17.2088C159.729 15.9997 160.181 14.8141 160.64 12.9242C163.861 16.4927 164.965 20.1904 165.447 24.1169C166.247 30.6553 164.172 36.8357 162.873 43.0982C162.203 46.3146 161.339 49.484 160.581 52.5771C161.939 53.0467 163.249 53.4986 164.824 54.0444C165.941 53.4223 167.364 52.6182 168.751 51.8435C170.69 54.2851 174.857 55.1303 178.49 53.9916C184.902 51.9843 192.09 42.8224 192.461 36.149C192.49 35.609 192.378 35.0632 192.32 34.3882C189.639 35.7029 187.224 37.1468 184.626 38.08C182.269 38.931 179.736 39.4827 177.232 39.7175C173.312 40.0814 170.49 38.0858 168.721 34.6934C167.099 31.5885 167.734 28.6715 170.496 25.6312C176.556 18.9637 186.107 19.7678 190.921 27.3509C191.532 28.3135 192.108 29.2936 192.778 30.3912C194.906 28.6069 196.828 26.8109 198.944 25.2732C202.282 22.8492 205.344 24.1815 205.85 28.2606C206.338 32.1931 205.544 35.7381 202.547 38.6845C200.125 41.0616 200.143 47.8641 202.353 50.4113C203.763 52.0371 206.537 51.6732 207.501 49.6483C208.083 48.4275 208.207 46.9367 208.959 45.8626C209.453 45.1583 210.699 44.9823 211.61 44.5714C211.616 45.4048 211.815 46.297 211.574 47.0541C211.322 47.8523 210.658 48.5156 210.17 49.2434C210.346 49.4781 210.528 49.707 210.705 49.9418C211.945 48.9851 213.708 48.2808 214.337 47.0189C216.794 42.0946 218.921 37.0059 221.102 31.9466C221.696 30.579 222.066 29.1117 222.536 27.6913C222.877 27.75 223.218 27.8028 223.553 27.8615C223.482 29.0706 223.67 30.3677 223.288 31.477C221.731 36.0081 221.431 40.5979 222.136 45.2992C222.636 48.6271 224.176 49.4018 226.85 47.4767C232.146 43.6675 236.225 39.066 237.183 32.2342C237.683 28.6832 238.876 25.2908 241.956 22.6203C243.466 25.1264 243.237 27.4976 241.797 29.5284C238.353 34.3764 237.918 39.8114 238.212 45.4283C238.253 46.2207 238.799 46.9895 239.111 47.7702C239.94 47.3828 240.986 47.1891 241.562 46.567C243.049 44.947 244.324 43.1334 246.417 41.4783C246.511 42.705 246.546 43.9434 246.722 45.1642C246.863 46.1502 247.181 47.1128 247.416 48.0871C248.297 47.6821 249.449 47.5002 250.008 46.8252C251.994 44.454 253.775 41.9126 256.091 38.8312C256.303 40.4512 256.567 41.7248 256.626 43.0043C256.802 46.8722 256.885 50.7459 257.031 54.6196C257.12 56.9028 258.389 57.6071 260.623 57.701C267.546 57.9945 274.47 58.4581 281.382 58.9864C283.604 59.1566 285.796 59.7494 288.006 60.1485C288.006 60.5359 288.006 60.9291 288.006 61.3165C279.443 60.7472 270.879 60.1074 262.309 59.6261C257.267 59.3444 257.067 59.5205 257.437 64.5094C258.272 75.8547 259.324 87.1766 260.147 98.5219C260.446 102.66 260.358 106.827 260.446 110.977C260.047 111 259.653 111 259.265 111ZM107.689 66.0413C107.701 66.3347 107.712 66.6282 107.724 66.9217C108.547 66.9862 109.364 67.0743 110.187 67.1036C128.237 67.714 146.316 67.8901 164.325 69.0639C179.789 70.0676 195.276 71.7462 210.164 76.4886C227.644 82.0586 243.877 89.8471 256.52 103.669C257.055 104.256 257.76 104.685 258.66 105.412C258.771 104.526 258.889 104.151 258.859 103.793C257.602 89.448 256.309 75.1093 255.104 60.7648C254.933 58.734 253.728 58.7927 252.288 58.7986C243.401 58.8573 234.509 58.822 225.622 58.957C204.915 59.274 184.203 59.3855 163.514 60.1485C151.723 60.5828 139.968 62.0208 128.219 63.2299C121.348 63.9342 114.53 65.0904 107.689 66.0413ZM83.867 12.0614C83.6378 12.079 83.4086 12.0908 83.1794 12.1084C79.1709 24.8036 75.1565 37.4989 71.1186 50.294C71.871 50.5229 72.2354 50.74 72.588 50.7224C80.558 50.2764 88.0401 52.3247 95.4282 55.0187C96.8799 55.547 98.5609 55.4413 100.589 55.6761C94.8698 40.7622 89.3684 26.4118 83.867 12.0614ZM254.71 56.8441C254.445 53.5397 254.198 50.4231 253.934 47.1069C247.933 51.3035 247.933 51.3035 245.088 49.079C242.144 49.4077 240.063 49.6425 237.982 49.8714C237.324 49.9477 236.501 49.7892 236.025 50.1237C233.368 51.9961 231 51.9608 229.818 50.1707C225.193 50.4466 221.378 51.3152 217.805 50.7224C214.002 50.0944 211.063 52.0665 207.895 52.9058C203.646 54.0327 201.148 53.5455 200.007 49.1729C199.525 47.3241 199.173 45.4459 198.761 43.5854C198.567 43.6147 198.379 43.6382 198.185 43.6675C197.668 47.9756 197.157 52.2836 196.61 56.8441C216.053 56.8441 235.214 56.8441 254.71 56.8441ZM179.389 22.9489C177.849 23.7178 174.869 24.8682 172.289 26.5996C170.038 28.1139 168.615 30.444 169.779 33.4198C170.72 35.8144 174.24 38.3852 176.821 37.7219C181.199 36.6009 185.443 34.8871 189.657 33.2085C191.62 32.4278 191.55 30.7727 190.639 29.0589C188.587 25.1851 185.349 23.2307 179.389 22.9489ZM158.823 58.3936C170.867 58.0355 182.169 57.7362 193.466 57.2549C194.153 57.2256 195.258 55.8346 195.352 54.9894C196.087 48.1282 196.669 41.2494 197.186 34.3647C197.286 33.0617 196.875 31.7177 196.704 30.3912C196.252 30.3501 195.805 30.3149 195.352 30.2738C194.847 31.9055 194.341 33.5313 193.842 35.1629C192.731 38.8254 192.155 42.7813 190.362 46.0798C188.734 49.0614 185.749 51.2917 183.421 53.9094C181.546 56.0165 179.336 56.8734 176.45 56.756C172.953 56.6152 169.432 57.0906 165.929 57.0202C164.401 56.9908 162.885 56.2806 160.863 55.7465C160.634 56.0459 159.94 56.9439 158.823 58.3936ZM103.504 57.4486C104.92 64.3333 105.22 64.4742 111.844 63.7053C124.54 62.238 137.253 60.888 149.954 59.4677C152.346 59.1977 154.727 58.8396 157.119 58.5286C157.125 58.2058 157.131 57.8829 157.137 57.5601C155.074 57.3841 153.011 57.0143 150.953 57.0789C146.716 57.2197 142.49 57.6599 138.252 57.8477C134.596 58.0062 130.929 57.9651 127.267 58.0473C125.78 58.0825 124.293 58.1705 122.812 58.3173C119.144 58.6753 115.482 59.1096 111.809 59.4324C111.292 59.4794 110.533 59.2564 110.24 58.8866C108.347 56.4978 105.873 57.4838 103.504 57.4486ZM158.224 49.9477C158.494 50.0181 158.765 50.0885 159.035 50.159C159.388 49.2375 159.834 48.3454 160.081 47.4004C160.692 45.0527 161.304 42.6991 161.745 40.3162C162.632 35.5562 163.643 30.7962 164.149 25.9892C164.454 23.1192 163.778 20.2021 161.104 18.0129C160.146 28.6598 159.182 39.3008 158.224 49.9477ZM198.738 38.8371C199.091 38.8547 199.449 38.8723 199.802 38.8899C202.793 36.46 204.627 33.3376 204.527 29.458C204.498 28.3956 203.081 27.3685 202.306 26.3238C201.118 27.2511 199.061 28.0552 198.902 29.1293C198.444 32.3105 198.738 35.5973 198.738 38.8371ZM86.0594 54.4846C86.0711 54.2264 86.0829 53.9681 86.0946 53.7158C80.8225 52.6123 75.5444 51.6322 70.1723 52.8647C70.1606 53.1406 70.1488 53.4223 70.1371 53.6981C75.4445 53.9564 80.7519 54.2205 86.0594 54.4846ZM134.914 51.8141C134.914 48.856 134.914 46.0798 134.914 42.8869C131.14 49.079 130.74 51.2389 134.914 51.8141ZM130.752 51.6967C130.065 53.1875 129.547 54.3027 129.036 55.412C132.233 57.0319 132.709 56.8734 134.343 53.6395C133.268 53.0584 132.192 52.4773 130.752 51.6967Z" fill="white"/>
<path d="M29.6522 71.8512C22.8225 51.9249 14.5234 32.7676 0 16.8735C0.464327 16.5977 0.922776 16.3159 1.3871 16.0401C8.12865 22.0678 12.9071 29.6334 16.9861 37.6097C21.0945 45.6389 24.7327 53.9029 28.9705 62.1081C28.6354 59.1618 28.3416 56.2095 27.9654 53.269C27.0015 45.7504 25.6849 38.2553 25.0971 30.7074C24.3331 20.9351 26.4372 11.914 34.078 4.92952C40.5786 -1.01608 49.6888 -1.65583 56.0307 3.39763C61.6379 7.86416 60.9326 14.9073 54.5319 18.1002C50.5587 20.084 46.415 21.0231 42.1185 19.3151C41.1017 18.9102 40.367 17.795 39.744 16.5448C44.8986 19.0217 49.6653 18.4758 54.3615 15.8933C58.8578 13.4224 59.4279 9.25518 55.7545 5.62209C51.4521 1.36686 44.881 0.480593 39.215 3.46806C30.2694 8.1811 26.7781 16.3335 26.6136 25.6892C26.4784 33.2195 27.7362 40.7791 28.5002 48.3153C29.2232 55.4758 30.1166 62.6188 30.8983 69.7734C30.9629 70.378 30.7278 71.0118 30.6338 71.634C30.2988 71.7103 29.9755 71.7807 29.6522 71.8512Z" fill="white"/>
<ellipse cx="45.8453" cy="52.2366" rx="1.76327" ry="1.76079" fill="white"/>
</g>
<defs>
<clipPath id="clip0_2302_233">
<rect width="288" height="111" fill="white"/>
</clipPath>
</defs>
</svg>
