<svg width="73" height="74" viewBox="0 0 73 74" fill="none" xmlns="http://www.w3.org/2000/svg">
<path d="M68.4187 0.982133L4.33699 2.5524C3.26749 2.57834 2.24873 3.01494 1.49202 3.77165C0.735302 4.52837 0.298702 5.54712 0.272764 6.61662L0.272738 6.68728C0.259243 7.20667 0.351554 7.72331 0.544047 8.20576C0.736541 8.68821 1.0252 9.1264 1.39246 9.49366C1.75971 9.86092 2.1979 10.1496 2.68035 10.3421C3.16281 10.5346 3.67944 10.6269 4.19883 10.6134L64.5415 9.1327L63.049 69.4636C63.0355 69.983 63.1278 70.4996 63.3203 70.9821C63.5128 71.4645 63.8015 71.9027 64.1687 72.27C64.536 72.6372 64.9742 72.9259 65.4566 73.1184C65.9391 73.3109 66.4557 73.4032 66.9751 73.3897L67.0458 73.3896C68.1153 73.3637 69.134 72.9271 69.8908 72.1704C70.6475 71.4137 71.0841 70.3949 71.11 69.3254L72.6803 5.24374C72.6941 4.68018 72.5933 4.11976 72.3841 3.59645C72.1749 3.07314 71.8615 2.59784 71.463 2.19937C71.0646 1.80089 70.5893 1.48754 70.066 1.2783C69.5426 1.06907 68.9822 0.968312 68.4187 0.982133Z" fill="white"/>
</svg>
