<svg width="73" height="74" viewBox="0 0 73 74" fill="none" xmlns="http://www.w3.org/2000/svg">
<path d="M0.482136 5.24393L2.0524 69.3256C2.07834 70.3951 2.51494 71.4139 3.27166 72.1706C4.02837 72.9273 5.04713 73.3639 6.11662 73.3898L6.18728 73.3899C6.70668 73.4034 7.22331 73.311 7.70576 73.1186C8.18821 72.9261 8.6264 72.6374 8.99366 72.2701C9.36092 71.9029 9.64957 71.4647 9.84207 70.9822C10.0346 70.4998 10.1269 69.9832 10.1134 69.4638L8.6327 9.12111L68.9636 10.6136C69.483 10.6271 69.9996 10.5347 70.4821 10.3423C70.9645 10.1498 71.4027 9.8611 71.77 9.49385C72.1372 9.12659 72.4259 8.6884 72.6184 8.20595C72.8109 7.7235 72.9032 7.20686 72.8897 6.68747L72.8897 6.61681C72.8637 5.54731 72.4271 4.52855 71.6704 3.77184C70.9137 3.01512 69.8949 2.57852 68.8254 2.55258L4.74374 0.982319C4.18019 0.968496 3.61976 1.06926 3.09645 1.27849C2.57315 1.48773 2.09784 1.80108 1.69937 2.19955C1.3009 2.59803 0.987543 3.07333 0.778308 3.59664C0.569073 4.11995 0.468312 4.68037 0.482136 5.24393Z" fill="white"/>
</svg>
