<svg width="239" height="239" viewBox="0 0 239 239" fill="none" xmlns="http://www.w3.org/2000/svg">
<g filter="url(#filter0_d_2302_220)">
<path d="M26.0859 189.016L25.8876 189.214C23.2101 183.363 21.5242 176.719 20.8301 169.381C21.5242 176.62 23.4084 183.165 26.0859 189.016Z" fill="#7B8694"/>
<path d="M89.7501 103.435C102.785 103.435 113.352 92.8682 113.352 79.8334C113.352 66.7985 102.785 56.2317 89.7501 56.2317C76.7153 56.2317 66.1484 66.7985 66.1484 79.8334C66.1484 92.8682 76.7153 103.435 89.7501 103.435Z" fill="#7B8694"/>
<path d="M161.051 20.3333H77.9498C41.8532 20.3333 20.334 41.8524 20.334 77.9491V161.051C20.334 171.86 22.2182 181.281 25.8873 189.214C34.4157 208.056 52.6623 218.667 77.9498 218.667H161.051C197.148 218.667 218.667 197.147 218.667 161.051V138.342V77.9491C218.667 41.8524 197.148 20.3333 161.051 20.3333ZM202.503 124.458C194.768 117.814 182.273 117.814 174.538 124.458L133.285 159.861C125.55 166.505 113.055 166.505 105.32 159.861L101.948 157.084C94.9073 150.936 83.7015 150.341 75.7682 155.696L38.6798 180.587C36.4982 175.033 35.209 168.587 35.209 161.051V77.9491C35.209 49.9841 49.9848 35.2083 77.9498 35.2083H161.051C189.016 35.2083 203.792 49.9841 203.792 77.9491V125.549L202.503 124.458Z" fill="#7B8694"/>
</g>
<defs>
<filter id="filter0_d_2302_220" x="-4.5" y="-4.5" width="258" height="258" filterUnits="userSpaceOnUse" color-interpolation-filters="sRGB">
<feFlood flood-opacity="0" result="BackgroundImageFix"/>
<feColorMatrix in="SourceAlpha" type="matrix" values="0 0 0 0 0 0 0 0 0 0 0 0 0 0 0 0 0 0 127 0" result="hardAlpha"/>
<feOffset dx="5" dy="5"/>
<feGaussianBlur stdDeviation="5"/>
<feComposite in2="hardAlpha" operator="out"/>
<feColorMatrix type="matrix" values="0 0 0 0 0 0 0 0 0 0 0 0 0 0 0 0 0 0 0.25 0"/>
<feBlend mode="normal" in2="BackgroundImageFix" result="effect1_dropShadow_2302_220"/>
<feBlend mode="normal" in="SourceGraphic" in2="effect1_dropShadow_2302_220" result="shape"/>
</filter>
</defs>
</svg>
